<?xml version="1.0" encoding="utf-8"?>
<!-- Generator: Adobe Illustrator 21.0.0, SVG Export Plug-In . SVG Version: 6.00 Build 0)  -->
<svg version="1.1" id="Capa_1" xmlns="http://www.w3.org/2000/svg" xmlns:xlink="http://www.w3.org/1999/xlink" x="0px" y="0px"
	 viewBox="0 0 15.6 24" style="enable-background:new 0 0 15.6 24;" xml:space="preserve">
<style type="text/css">
	.st0{fill:#FFFFFF;}
</style>
<title>isotipo_marcar_15x24</title>
<path class="st0" d="M14.2,11.7c-0.5-0.7-0.9-1.5-1.1-2.3c-0.2-0.7-0.3-1.3-0.3-2c0-0.1,0-0.3,0-0.4c-0.3-2.2-1.9-3.9-4-4.3V2.3
	c1,0.2,1.9,0.2,2.9,0C12.2,2,13,0.3,13,0.3c-0.9-0.2-1.7-0.2-2.6-0.1c-0.6,0.6-1.2,1.2-1.5,2V0.9H8.1c-0.7,0-1.2,0.5-1.2,1.2v0.6
	c-2.3,0.5-4,2.5-4,4.8c0,0.1,0,0.1,0,0.2c0,0.6-0.1,1.1-0.2,1.7c-0.2,0.7-0.5,1.4-1,2c-1.1,1.4-1.7,3.2-1.6,5c0.1,4,3.3,7.3,7.3,7.6
	h0.5c4.3,0,7.8-3.5,7.8-7.8C15.7,14.6,15.2,13,14.2,11.7z M13.1,21.5c-1.4,1.4-3.3,2.2-5.3,2.2H7.4c-3.8-0.3-6.9-3.4-7-7.2
	c0-0.9,0.1-1.8,0.4-2.6C1,13,1.4,12.3,1.9,11.6c0.4-0.5,0.7-1.1,1-1.7c0,0,0.1-0.2,0.1-0.3c1.4,0.7,3,1,4.5,1v3.6l-2,1.6
	c-0.1-0.1-0.2-0.1-0.4-0.1c-0.5,0-0.9,0.4-0.9,0.9s0.4,0.9,0.9,0.9S6,17,6,16.6c0-0.1,0-0.2-0.1-0.3l1.9-1.5l1.8,1.5
	c0,0.1-0.1,0.2-0.1,0.3c0,0.5,0.4,0.9,0.9,0.9s0.9-0.4,0.9-0.9s-0.4-0.9-0.9-0.9c-0.1,0-0.3,0-0.4,0.1l-2-1.6v-3.6
	c1.6,0.1,3.2-0.3,4.7-1c0,0.1,0.1,0.3,0.1,0.3c0.2,0.7,0.6,1.4,1,2c0.9,1.3,1.4,2.7,1.3,4.3C15.3,18.2,14.5,20.1,13.1,21.5z"/>
</svg>
