<svg id="Capa_1" data-name="Capa 1" xmlns="http://www.w3.org/2000/svg" viewBox="0 0 15.64 24"><defs><style>.cls-1{fill:#2d2c29;}</style></defs><title>isotipo_marcar_15x24</title><path class="cls-1" d="M-839.13,1352.69a6.89,6.89,0,0,1-1.11-2.32,8,8,0,0,1-.32-2,3.19,3.19,0,0,0,0-.4,5,5,0,0,0-4-4.31v-.34a7.31,7.31,0,0,0,2.89,0c.53-.3,1.27-2.07,1.27-2.07a7.36,7.36,0,0,0-2.62-.11,6.54,6.54,0,0,0-1.54,2v-1.25h-.69a1.19,1.19,0,0,0-1.19,1.19v.61a5,5,0,0,0-4,4.85c0,.06,0,.11,0,.17a5.66,5.66,0,0,1-.22,1.7,6,6,0,0,1-1,2,7.79,7.79,0,0,0-1.64,5A7.86,7.86,0,0,0-846,1365l.5,0a7.82,7.82,0,0,0,7.82-7.82A7.78,7.78,0,0,0-839.13,1352.69Zm-1.13,9.76a7.42,7.42,0,0,1-5.28,2.19H-846a7.51,7.51,0,0,1-7-7.24,7.47,7.47,0,0,1,.38-2.59,7.43,7.43,0,0,1,1.19-2.22,6.36,6.36,0,0,0,.95-1.7s.08-.19.12-.33a10.6,10.6,0,0,0,4.52,1v3.58l-2,1.62a.86.86,0,0,0-.37-.09.87.87,0,0,0-.87.87.87.87,0,0,0,.87.87.87.87,0,0,0,.87-.87.86.86,0,0,0-.06-.3l1.9-1.53,1.84,1.52a.86.86,0,0,0-.06.31.87.87,0,0,0,.87.87.87.87,0,0,0,.87-.87.87.87,0,0,0-.87-.87.86.86,0,0,0-.37.08l-2-1.62v-3.57a9.28,9.28,0,0,0,4.65-1c0,.1.11.34.11.34a8,8,0,0,0,1,2,7.42,7.42,0,0,1,1.35,4.28A7.42,7.42,0,0,1-840.26,1362.45Z" transform="translate(853.36 -1340.99)"/></svg>